Patient4_TMGait_0pt3_01_right_09_EMG.mot
version=1
nRows=20
nColumns=33
inDegrees=no
endheader
time	1LAddLong	2LGlutMax	3LGlutMed	4LIliopsoas	5LSemiMemb	6LBicFemLong	7LRecFem	8LVastMed	9LVastLat	10LGasMed	11LTibAnt	12lTibPost	13LPeroneusLong	14LSol	15LExtDigLong	16LFlexDigLong	17RAddLong	18RGlutMax	19RGlutMed	20RIliopsoas	21RSemiMemb	22RBicFemLong	23RRecFem	24RVastMed	25RVastLat	26RGasMed	27RTibAnt	28RTibPost	29RPeroneusLong	30RSol	31RExtDigLong	32RFlexDigLong
17.538	0.009766	0.30609	0.17761	0.000458	-0.003662	-0.15045	-0.068512	-0.012054	0.029755	0.033264	0.038757	-0.035248	-0.084686	-0.1799	-0.02121	0.037079	0.027008	0.12177	0.06073	0.071869	0.056458	-0.04364	0.072174	-0.14633	-0.024567	-0.002289	0.52155	-0.000153	0.074768	-0.19623	0.001678	-0.00412
17.539	0.004425	0.30472	0.16296	0.018463	0.003204	-0.085754	-0.034027	-0.002289	0.024109	0.34027	0.025787	0.039063	0.04776	-0.098419	-0.003967	-0.09964	0.043793	0.11841	-0.13382	0.13382	0.059052	-0.032043	0.074615	-0.09491	-0.023804	-0.004883	0.9845	-0.001984	-0.11551	-0.21042	0.000305	0.00061
17.54	0.008392	0.27466	0.15915	0.046692	-0.002441	-0.037537	-0.042419	0.002899	0.001068	0.52521	-0.011292	0.052032	0.077057	0.059509	0.091095	-0.046082	0.03006	0.062866	-0.38956	0.11597	0.062256	-0.028992	0.028992	-0.026855	-0.016632	-0.006561	1.2015	-0.001526	-0.03891	-0.13382	-0.000916	-0.007477
17.541	-0.005646	0.26489	0.17654	0.038147	-0.00824	0.002747	0.002594	-0.002136	0.06073	0.77209	-0.030823	-0.10071	0.53406	-0.16464	0.09491	0.011902	0.006104	0.069427	-0.40573	0.036926	0.059967	-0.010223	0.021515	-0.022583	-0.006104	-0.013123	0.72144	-0.006409	0.12985	-0.023651	-0.004883	-0.00351
17.542	-0.003967	0.25726	0.023956	0.008545	-0.016937	0.009155	-0.029907	-0.006714	0.20767	0.90241	-0.036163	-0.018616	0.71732	-0.2803	0.054779	-0.13794	0.020142	0.10056	-0.16235	-0.095978	0.061188	-0.011444	-0.004883	-0.048981	0.001831	-0.011139	-0.80109	0.000305	0.242	0.004883	-0.000916	-0.006714
17.543	-0.00946	0.10742	-0.16159	-0.015259	-0.089264	0.057526	0.033417	-0.007172	0.28214	0.31052	-0.014038	0.097961	0.06073	-0.16983	0.013428	0.40405	0.037079	0.059814	-0.069427	-0.12253	0.048523	-0.003357	0.044708	-0.041351	0.007324	-0.001984	-1.0246	-0.010376	0.50079	-0.064697	-0.001831	-0.000305
17.544	-0.00412	0.13718	-0.19882	-0.019836	-0.085907	0.067749	0.052032	-0.012817	0.17166	-0.27359	-0.003204	-0.018921	-0.22079	0.40787	-0.079956	0.27222	0.000916	0.078278	-0.081329	-0.063171	0.056458	-0.00885	0.042114	-0.072784	-0.010376	-0.001678	-0.68161	-0.011749	0.31235	0.048981	0.001678	-0.001373
17.545	-0.003357	0.18143	-0.13001	0.002747	-0.010834	0.007019	0.033875	-0.029907	-0.069733	-0.28961	-0.012665	0.089569	-0.020905	0.39505	-0.12436	-0.14313	-0.024261	0.11612	-0.23499	-0.004272	0.071106	0.022888	0.001068	-0.028534	0.01297	-0.02243	-0.57953	-0.003204	-0.06958	0.089874	-0.002441	-0.000153
17.546	-0.01297	0.12329	-0.073395	-0.000458	0.014343	0.058594	0.06073	-0.015411	-0.42175	-0.34409	-0.011444	0.054474	-0.35141	0.24521	-0.13809	-0.17456	-0.038605	0.069275	-0.14832	0.11765	0.064392	0.045319	0.040436	0.020905	0.011749	-0.002289	-0.38559	-0.003052	-0.41901	-0.050964	-0.001526	-0.011139
17.547	-0.022736	0.10559	0.084686	0.015717	0.036469	0.023499	-0.009308	-0.001068	-0.4303	-0.36636	0.008392	0.008698	-0.17471	-0.24353	-0.11169	-0.121	-0.035553	0.03479	-0.21179	0.19806	0.055695	0.05188	0.03067	-0.032196	0.018921	-0.00885	-0.065002	-0.003357	-0.37827	-0.033417	-0.001831	-0.018616
17.548	-0.036621	0.064392	0.1442	0.006866	0.015717	0.12375	-0.082245	-0.011749	-0.31876	-0.34424	0.018616	-0.016937	0.42786	-0.39856	-0.026093	-0.088043	-0.032043	0.000763	-0.14526	0.072327	0.053101	0.044556	-0.024109	-0.011597	0.010529	0.005188	0.21851	-0.003357	-0.25513	-0.063171	-0.006409	-0.015106
17.549	-0.033264	0.042877	0.1062	0.006714	-0.068359	0.14358	-0.098419	-0.015106	-0.16022	-0.17639	0.017548	-0.013733	-0.21759	0.092621	-0.056763	-0.050201	-0.023804	0.005951	-0.0383	-0.058594	0.062866	0.059967	0.00885	-0.03006	0.014038	-0.004272	0.30289	-0.004272	-0.07843	-0.028687	-0.002594	-0.017853
17.55	-0.044098	0.1152	0.16602	0.005798	-0.11215	0.1915	-0.06073	0.000763	-0.051575	-0.070038	-0.026703	-0.015106	-0.34851	0.10483	-0.168	-0.082397	-0.022888	0.029602	0.014496	-0.16449	0.056305	0.046844	0.040741	-0.014496	0.027466	-0.01236	0.37842	-0.001984	-0.047302	-0.006714	-0.001831	-0.020599
17.551	-0.031586	0.159	0.071716	0	-0.11993	0.23743	-0.053864	0.009155	0.034943	-0.042267	-0.011444	-0.023041	0.13702	-0.02533	-0.072021	-0.088959	-0.00412	0.01236	0.063019	-0.12787	0.055389	0.015106	0.032196	-0.038452	-0.0177	-0.002899	0.43808	-0.002899	-0.029297	-0.022583	-0.002136	-0.011749
17.552	-0.012512	0.077667	-0.10193	0.000153	0.011902	0.16052	-0.076141	0.007477	0.12146	-0.090332	-0.00412	-0.023956	-0.028381	0.27283	0.073242	0.038147	-0.003815	0.06897	-0.14999	-0.11017	0.043335	0.007324	0.06897	-0.05249	-0.00885	-0.002136	0.31265	-0.007935	-0.046539	-0.14557	-0.001678	-0.013428
17.553	0.000916	-0.007629	-0.10361	-0.020142	0.042419	0.035858	-0.065765	-0.000763	0.16571	-0.12985	-0.009003	-0.005646	-0.10178	0.46143	0.10544	-0.000153	-0.006714	0.007629	-0.058746	-0.10193	0.034332	-0.022125	0.10483	-0.052643	-0.018921	0.000458	-0.1532	-0.010071	0.10346	-0.10284	-0.001221	-0.01358
17.554	0.018158	-0.035095	-0.078125	-0.017548	0.085144	-0.25299	0.01709	-0.000153	0.21088	-0.1416	0.011597	-0.010681	-0.062866	0.25269	0.1326	0.12909	-0.001068	0.047913	0.24002	-0.041504	0.033569	-0.027313	0.089874	-0.08606	-0.009918	-0.012665	-0.42328	-0.00351	-0.35538	0.047302	0	-0.015869
17.555	0.032959	0.005951	0.086975	0.000458	0.10925	-0.26642	0.072021	-0.00351	0.20325	-0.14313	0.003967	-0.006866	0.004578	0.062408	0.10239	0.06897	0.000153	0.089111	0.43304	0.08728	0.022736	-0.036774	0.12421	-0.092621	-0.028381	-0.007172	-0.21912	-0.003204	-0.69107	0.037842	-0.001068	-0.000763
17.556	0.041809	0.021973	0.0354	0.019531	0.046844	-0.19562	0.1033	-0.00061	0.15106	-0.1294	0.01236	-0.014648	-0.011292	-0.027924	0.047302	0.009308	0.000153	-0.001373	0.16525	0.14893	0.024567	-0.038757	0.10391	-0.12558	-0.012207	-0.00061	-0.015411	-0.002899	-0.13168	-0.014191	-0.00061	-0.003815
17.557	0.045013	-0.024567	-0.040436	0.02655	0.025482	-0.15549	0.06958	0.002594	-0.02594	-0.13565	0.021362	-0.014038	-0.15182	0.072784	0.037537	-0.040283	0.001984	-0.033875	0.11597	0.021362	0.024109	-0.040894	0.075378	-0.051575	-0.0177	0.00351	-0.17364	0.006866	0.88287	-0.027618	0.001678	-0.003967
